<svg id="Layer_1" data-name="Layer 1" xmlns="http://www.w3.org/2000/svg" viewBox="0 0 138.3 127.84"><defs><style>.cls-1{fill:#00ffa2;}</style></defs><path class="cls-1" d="M120.44,52.48,105.07,67.84a29.51,29.51,0,0,0-3.35-4.1c-6.29-6.3-13-9.36-20.21-9.24S67.29,58.14,60.41,65L35.06,90.38a11.41,11.41,0,0,1-16.14,0l-8.07-8.07L72.19,21a10.73,10.73,0,0,1,15.15,0l7.78,7.78L85.06,38.8Q102.9,34.94,120.44,52.48Z" transform="translate(-10.85 -17.83)"/><circle class="cls-1" cx="69.14" cy="63.92" r="7.89"/><path class="cls-1" d="M39.56,111,54.93,95.66a29.51,29.51,0,0,0,3.35,4.1c6.29,6.3,13,9.36,20.21,9.24s14.22-3.64,21.1-10.53l25.35-25.35a11.42,11.42,0,0,1,16.14,0l8.07,8.07L87.81,142.53a10.73,10.73,0,0,1-15.15,0l-7.78-7.79,10.06-10Q57.11,128.55,39.56,111Z" transform="translate(-10.85 -17.83)"/></svg>